<svg width="132" height="42" viewBox="0 0 132 42" fill="none" xmlns="http://www.w3.org/2000/svg">
<path d="M66.0917 41.2744C65.9805 39.9134 65.9258 38.5524 65.9258 37.1798H65.8146C64.8506 38.7719 63.4557 40.0562 61.7925 40.8829C60.102 41.6428 58.2668 42.0237 56.4148 41.999C55.2085 42.0049 54.0076 41.8366 52.849 41.4993C51.768 41.1803 50.7573 40.658 49.8706 39.96C49.0381 39.2512 48.3709 38.3675 47.916 37.3713C47.4041 36.2783 47.153 35.0806 47.1826 33.8731C47.1249 32.3322 47.5296 30.8094 48.3441 29.502C49.1417 28.2907 50.2305 27.3007 51.51 26.6235C52.9795 25.841 54.5669 25.3058 56.209 25.0393C58.0872 24.7047 59.9912 24.5375 61.8987 24.5395H65.6918V23.4234C65.69 22.2968 65.3484 21.1973 64.7119 20.2695C64.0753 19.3417 63.1738 18.6293 62.126 18.226C61.2255 17.8846 60.2676 17.7217 59.3053 17.7463C58.4381 17.7311 57.5725 17.8246 56.7284 18.0245C56.0379 18.2011 55.3648 18.4403 54.7174 18.7391C54.1319 19.006 53.5799 19.3415 53.073 19.7386L51.661 20.853L48.5482 17.6263C49.986 16.2983 51.6803 15.2811 53.526 14.6379C55.3454 13.9872 57.2611 13.6493 59.1924 13.6384C60.9099 13.6022 62.6215 13.851 64.2582 14.3747C65.5415 14.7932 66.7269 15.4687 67.7427 16.3603C68.6186 17.1564 69.3058 18.1395 69.7537 19.2372C70.1808 20.3008 70.3999 21.437 70.3992 22.5838V41.2744H66.0917ZM62.9258 28.3209C61.7145 28.3209 60.4817 28.3876 59.214 28.5108C58.0337 28.6226 56.8714 28.8782 55.7527 29.2721C54.7951 29.6023 53.9251 30.1476 53.2091 30.8663C52.877 31.2099 52.6177 31.6175 52.4466 32.0643C52.2755 32.5112 52.1962 32.9882 52.2135 33.4667C52.1577 34.1142 52.2733 34.7651 52.5486 35.3534C52.824 35.9417 53.2493 36.4465 53.7815 36.8166C55.0565 37.5613 56.5196 37.9178 57.9928 37.8428C59.2231 37.8745 60.4451 37.6309 61.5702 37.1298C62.4893 36.6963 63.3014 36.0637 63.9479 35.2774C64.5419 34.5312 64.9834 33.6748 65.2471 32.757C65.5173 31.8667 65.6669 30.9438 65.6918 30.0134V28.3209H62.9258Z" fill="#F04B32"/>
<path d="M92.0795 21.0848C91.4606 20.3218 90.7075 19.6793 89.8577 19.1891C88.8591 18.649 87.736 18.3835 86.6022 18.4195C85.5063 18.3921 84.4228 18.6577 83.4628 19.1891C83.0549 19.3978 82.7139 19.7179 82.4791 20.1125C82.2443 20.507 82.1252 20.9602 82.1354 21.4197C82.1215 21.7772 82.1825 22.1336 82.3146 22.466C82.4466 22.7983 82.6468 23.099 82.902 23.3487C83.4225 23.8508 84.0283 24.2553 84.6907 24.5431C85.4045 24.8516 86.1502 25.0796 86.9141 25.2228L89.0247 25.6559C90.0714 25.9094 91.0998 26.2338 92.1027 26.627C93.0028 26.9688 93.84 27.4586 94.58 28.0763C95.2772 28.6943 95.8341 29.4556 96.2127 30.3085C96.6325 31.3061 96.8334 32.3828 96.8018 33.4653C96.8404 34.8274 96.5057 36.174 95.8344 37.3583C95.2147 38.4168 94.3637 39.3202 93.3455 40.0003C92.283 40.7027 91.1024 41.2056 89.861 41.4845C88.5705 41.7811 87.2508 41.9309 85.9269 41.931C83.9249 41.9739 81.9335 41.6295 80.0613 40.9165C78.2567 40.1081 76.7159 38.805 75.6161 37.1567L79.4806 33.985C80.317 34.8296 81.2447 35.5777 82.2466 36.2155C83.378 36.8878 84.6776 37.2208 85.9916 37.175C86.6368 37.1747 87.2804 37.1105 87.913 36.9835C88.5264 36.8659 89.1183 36.6552 89.6685 36.3588C90.1608 36.0842 90.5859 35.7029 90.913 35.2427C91.2386 34.8115 91.4136 34.2846 91.4108 33.7434C91.4208 33.3994 91.3631 33.0568 91.2409 32.7352C91.1188 32.4136 90.9346 32.1194 90.6989 31.8694C90.2189 31.367 89.6404 30.9699 88.9998 30.7033C88.2913 30.4218 87.5588 30.2055 86.8113 30.057C86.0662 29.8904 85.4224 29.7438 84.855 29.6339C83.8033 29.381 82.7649 29.0752 81.7438 28.7177C80.807 28.4077 79.9258 27.9487 79.1338 27.3583C78.3756 26.7821 77.7563 26.042 77.3219 25.1928C76.839 24.1858 76.6067 23.0763 76.6449 21.9594C76.6138 20.6818 76.9164 19.4183 77.5226 18.2946C78.0942 17.268 78.888 16.3833 79.8456 15.7059C80.8543 14.9988 81.9794 14.4761 83.1692 14.1617C84.3766 13.8207 85.625 13.6481 86.8793 13.6486C88.667 13.6389 90.4387 13.9866 92.0911 14.6714C93.734 15.3349 95.1232 16.5073 96.0567 18.0181L92.0795 21.0848Z" fill="#F04B32"/>
<path d="M102.156 4.66625C102.151 4.17266 102.247 3.68333 102.438 3.22858C102.629 2.77383 102.912 2.36335 103.267 2.02259C103.608 1.67531 104.014 1.39892 104.462 1.2092C104.91 1.01949 105.39 0.920169 105.876 0.91692C106.362 0.913672 106.843 1.00656 107.294 1.19027C107.744 1.37398 108.153 1.64492 108.499 1.98761L108.534 2.02259C108.889 2.36372 109.171 2.77426 109.362 3.22893C109.553 3.68359 109.65 4.17275 109.645 4.66625C109.65 5.15952 109.553 5.64845 109.362 6.10285C109.171 6.55726 108.889 6.9675 108.534 7.30825C108.193 7.65553 107.787 7.93193 107.339 8.12164C106.891 8.31136 106.411 8.41067 105.925 8.41392C105.439 8.41717 104.958 8.32429 104.508 8.14057C104.057 7.95686 103.648 7.68592 103.302 7.34323L103.267 7.30825C102.912 6.96774 102.629 6.55755 102.438 6.10309C102.247 5.64863 102.151 5.15958 102.156 4.66625ZM103.345 14.328H108.444V41.2744H103.345V14.328Z" fill="#F04B32"/>
<path d="M116.534 14.3283H121.635V18.4779H121.746C122.086 17.7533 122.544 17.0902 123.1 16.5155C123.667 15.9369 124.305 15.4331 125 15.0163C125.719 14.5894 126.488 14.2537 127.289 14.0168C128.097 13.7748 128.935 13.6508 129.778 13.6487C130.532 13.6424 131.281 13.7548 132 13.9818L131.778 19.559C131.356 19.4474 130.948 19.3458 130.533 19.2691C130.122 19.1987 129.706 19.1614 129.289 19.1575C128.254 19.0848 127.216 19.2285 126.24 19.5795C125.264 19.9305 124.371 20.4811 123.617 21.1965C122.29 22.5908 121.641 24.7764 121.641 27.7332V41.2747H116.534V14.3283Z" fill="#F04B32"/>
<path d="M41.0992 36.3066H33.9112C37.5756 33.1586 40.0203 28.8169 40.8176 24.0416C41.6148 19.2663 40.7137 14.3616 38.272 10.1861C35.8303 6.0106 32.0035 2.83027 27.4616 1.20183C22.9197 -0.426608 17.952 -0.399408 13.428 1.27867C8.90405 2.95675 5.1121 6.1788 2.7159 10.3808C0.319705 14.5828 -0.528058 19.4971 0.321006 24.2633C1.17007 29.0296 3.66187 33.3443 7.36022 36.452C11.0586 39.5597 15.7278 41.2626 20.5507 41.2625H45.2092L41.0992 36.3066ZM5.03982 20.6329C5.03949 17.5529 5.94891 14.5421 7.65307 11.981C9.35723 9.41999 11.7796 7.42381 14.6138 6.24494C17.448 5.06607 20.5668 4.75745 23.5757 5.35812C26.5847 5.95878 29.3486 7.44175 31.518 9.61949C33.6874 11.7972 35.1648 14.5719 35.7635 17.5926C36.3621 20.6134 36.055 23.7445 34.8811 26.59C33.7071 29.4356 31.7191 31.8677 29.1683 33.5788C26.6175 35.29 23.6186 36.2033 20.5507 36.2033C16.4387 36.1985 12.4965 34.5565 9.58877 31.6376C6.68101 28.7187 5.04509 24.7611 5.03982 20.6329Z" fill="#F04B32"/>
</svg>
