<svg xmlns="http://www.w3.org/2000/svg" width="100" height="32" viewBox="0 0 100 32" fill="none">
<path d="M50.0698 31.1448C49.9856 30.1178 49.9441 29.0907 49.9441 28.0562H49.8599C49.1295 29.2579 48.0724 30.2271 46.8128 30.8506C45.5319 31.4238 44.1416 31.7104 42.7387 31.6929C41.8248 31.6966 40.9147 31.5697 40.0373 31.3145C39.2189 31.0731 38.4534 30.6797 37.7809 30.153C37.1498 29.6187 36.6445 28.9512 36.3 28.2008C35.9141 27.3774 35.7243 26.4761 35.7444 25.566C35.7029 24.4019 36.0109 23.253 36.6281 22.2662C37.2328 21.3523 38.0574 20.6056 39.0266 20.094C40.1403 19.5032 41.3433 19.0997 42.5866 18.8985C44.0096 18.6459 45.4514 18.5189 46.8958 18.5202H49.7656V17.6779C49.7631 15.9382 48.6883 14.3782 47.0642 13.7559C46.3816 13.4982 45.655 13.375 44.926 13.3939C44.2685 13.3826 43.6123 13.453 42.9737 13.6038C42.4508 13.7371 41.9405 13.9168 41.4502 14.1431C41.0077 14.3442 40.5891 14.5956 40.2045 14.8923L39.136 15.7345L36.779 13.3021C37.8676 12.299 39.151 11.5309 40.5501 11.0457C41.9291 10.5567 43.3798 10.3041 44.843 10.2965C46.144 10.2701 47.4413 10.4574 48.6808 10.8521C49.6512 11.1689 50.5475 11.678 51.3156 12.3505C51.9793 12.9514 52.4997 13.6943 52.8391 14.5227C53.1622 15.3247 53.3281 16.182 53.3269 17.0482V31.1448H50.0698ZM47.6714 21.3636C46.7537 21.3636 45.8197 21.4139 44.8606 21.5069C43.9681 21.5937 43.0881 21.7885 42.2434 22.0877C41.5181 22.3378 40.8581 22.7489 40.3163 23.2919C39.811 23.8174 39.5407 24.5251 39.5671 25.253C39.4804 26.2448 39.9292 27.2077 40.745 27.7784C41.7104 28.3403 42.8191 28.6093 43.9354 28.5527C44.8681 28.5766 45.7933 28.3918 46.6456 28.0134C47.342 27.6866 47.9567 27.2089 48.447 26.6156C48.897 26.0524 49.2326 25.4063 49.4312 24.7137C49.6349 24.0412 49.7493 23.3447 49.7681 22.6433V21.3636H47.6714Z" fill="#F04B32"/>
<path d="M69.7578 15.9093C69.2889 15.3336 68.7182 14.8484 68.0746 14.4788C67.3178 14.0715 66.4668 13.8716 65.6082 13.898C64.7798 13.8779 63.9602 14.079 63.2349 14.4788C62.6026 14.7993 62.2104 15.453 62.2242 16.162C62.2029 16.7075 62.4141 17.2368 62.805 17.6177C63.1997 17.996 63.6586 18.3015 64.1601 18.5177C64.7007 18.7515 65.2651 18.9237 65.8433 19.0306L67.4423 19.3587C68.2355 19.5497 69.0136 19.7949 69.7741 20.0915C70.4567 20.3492 71.0915 20.7188 71.6509 21.1852C72.1789 21.6515 72.6012 22.2248 72.8879 22.8684C73.2059 23.6213 73.358 24.4334 73.3341 25.2505C73.363 26.2788 73.1103 27.2945 72.6012 28.1882C72.1324 28.9877 71.4875 29.6703 70.7157 30.1832C69.9124 30.7124 69.0199 31.092 68.0809 31.3032C67.1029 31.527 66.1035 31.6401 65.1016 31.6401C63.5844 31.6728 62.0759 31.4126 60.658 30.8746C59.2903 30.2649 58.1237 29.2819 57.2916 28.0374L60.213 25.6389C60.8465 26.2775 61.5492 26.8419 62.3085 27.3221C63.1658 27.83 64.1501 28.0814 65.1456 28.0462C65.6346 28.0462 66.1224 27.9984 66.6013 27.9029C67.0664 27.8136 67.5139 27.6552 67.9313 27.4315C68.3046 27.2241 68.6264 26.9362 68.8741 26.5893C69.1192 26.2612 69.2499 25.8627 69.2449 25.4529C69.2612 24.9287 69.0664 24.4196 68.7056 24.0387C68.3423 23.6578 67.9036 23.3561 67.4184 23.155C66.8816 22.9413 66.3273 22.7779 65.7603 22.6672C65.1959 22.5415 64.7082 22.4322 64.2795 22.3479C63.4826 22.1581 62.6956 21.9268 61.9226 21.6578C61.2123 21.424 60.5448 21.0771 59.9439 20.6308C59.3695 20.1959 58.9006 19.6377 58.5725 18.9979C58.2067 18.2374 58.0295 17.4002 58.0596 16.5567C58.0357 15.5913 58.2645 14.6372 58.7246 13.7874C59.1583 13.0131 59.7592 12.3456 60.4832 11.8352C61.25 11.3047 62.1048 10.915 63.0086 10.6825C63.9238 10.4248 64.8691 10.2953 65.8194 10.2953C67.1733 10.289 68.5158 10.553 69.7666 11.0697C71.0111 11.5712 72.0632 12.4549 72.7709 13.5951L69.7578 15.9093Z" fill="#F04B32"/>
<path d="M77.3919 3.51974C77.3844 2.76676 77.6886 2.04521 78.2341 1.52479C79.3215 0.423611 81.0965 0.411038 82.1976 1.49839C82.2064 1.50719 82.2152 1.51599 82.224 1.52479C82.7683 2.04521 83.0725 2.76676 83.0663 3.51974C83.0725 4.27271 82.7683 4.99426 82.224 5.51468C81.1367 6.61586 79.3617 6.62843 78.2605 5.54108C78.2517 5.53228 78.2429 5.52348 78.2341 5.51468C77.6898 4.99426 77.3844 4.27146 77.3919 3.51974ZM78.2932 10.8081H82.1562V31.1448H78.2932V10.8081Z" fill="#F04B32"/>
<path d="M88.2842 10.8081H92.1472V13.9395H92.2314C92.4904 13.3926 92.8373 12.8923 93.2584 12.4586C93.6883 12.0199 94.1723 11.639 94.6977 11.3223C95.2421 11.0017 95.8253 10.7503 96.4312 10.5731C97.0434 10.3908 97.6782 10.2978 98.3168 10.2953C98.8875 10.2915 99.4557 10.377 100 10.5479L99.8316 14.7565C99.5123 14.6723 99.2005 14.5969 98.8888 14.5378C98.577 14.485 98.2615 14.4574 97.946 14.4536C96.3596 14.3417 94.7996 14.8998 93.6443 15.9935C92.6425 17.0456 92.1459 18.6949 92.1459 20.9262V31.1448H88.283V10.8081H88.2842Z" fill="#F04B32"/>
<path d="M31.136 27.3963H25.6904C29.0241 24.5415 31.136 20.3014 31.136 15.5686C31.136 6.97037 24.1656 0 15.5686 0C6.97037 0 0 6.97037 0 15.5686C0 24.1669 6.97037 31.136 15.5686 31.136H34.2497L31.136 27.3963ZM3.81768 15.5686C3.81768 9.08977 9.08851 3.81768 15.5686 3.81768C22.0475 3.81768 27.3183 9.08977 27.3183 15.5686C27.3183 22.0475 22.0475 27.3183 15.5686 27.3183C9.08851 27.3183 3.81768 22.0475 3.81768 15.5686Z" fill="#F04B32"/>
</svg>